<?xml version="1.0" encoding="UTF-8" standalone="no"?>
<!-- Created with Inkscape (http://www.inkscape.org/) -->

<svg
   version="1.1"
   id="svg1"
   width="789.57629"
   height="684.54889"
   viewBox="0 0 789.5763 684.54889"
   sodipodi:docname="light.svg"
   inkscape:export-filename="..\favicon.png"
   inkscape:export-xdpi="24"
   inkscape:export-ydpi="24"
   xmlns:inkscape="http://www.inkscape.org/namespaces/inkscape"
   xmlns:sodipodi="http://sodipodi.sourceforge.net/DTD/sodipodi-0.dtd"
   xmlns="http://www.w3.org/2000/svg"
   xmlns:svg="http://www.w3.org/2000/svg">
  <defs
     id="defs1" />
  <sodipodi:namedview
     id="namedview1"
     pagecolor="#ffffff"
     bordercolor="#000000"
     borderopacity="0.25"
     inkscape:showpageshadow="2"
     inkscape:pageopacity="0.0"
     inkscape:pagecheckerboard="0"
     inkscape:deskcolor="#d1d1d1">
    <inkscape:page
       x="0"
       y="0"
       width="789.57629"
       height="684.54889"
       id="page2"
       margin="0"
       bleed="0" />
  </sodipodi:namedview>
  <g
     inkscape:groupmode="layer"
     inkscape:label="Image"
     id="g1"
     transform="translate(-111.97876,-115.48432)">
    <path
       style="fill:#ffffff;fill-opacity:1;stroke-width:1.49901"
       d="m 454.98541,799.09951 c -56.85686,-4.42163 -111.18023,-22.18749 -154.28985,-50.45902 -24.79153,-16.25845 -60.81826,-47.17784 -58.11754,-49.87861 0.41582,-0.41567 3.66489,0.72807 7.2201,2.54172 22.05722,11.2528 55.58748,23.68007 74.49641,27.61033 14.59989,3.03474 14.62027,3.02801 8.15089,-2.71157 -7.99895,-7.09648 -16.92594,-12.85642 -34.10687,-22.00716 -42.87914,-22.83761 -76.93851,-48.28426 -100.95391,-75.42509 -10.89999,-12.31844 -30.39902,-39.03415 -34.83183,-47.72318 -3.85458,-7.55562 -2.68607,-14.5004 6.91802,-41.11502 14.57744,-40.39669 29.50521,-65.0309 56.16516,-92.68542 17.10089,-17.73881 17.536,-18.36147 21.55466,-30.84588 8.64805,-26.86602 23.65945,-45.79063 44.40235,-55.97727 14.23238,-6.98941 28.1745,-9.92027 47.34766,-9.95329 14.92878,-0.0255 15.20207,-0.0908 21.73568,-5.18088 8.81055,-6.8639 24.76432,-15.5291 42.81463,-23.2545 17.80842,-7.6219 23.06607,-11.42804 29.78723,-21.56371 12.50362,-18.85578 15.32139,-42.00165 7.96805,-65.45093 -5.40253,-17.22818 -6.26611,-26.81365 -3.72043,-41.295 4.94645,-28.13818 22.47662,-48.38007 50.15241,-57.91038 13.69038,-4.71437 47.21179,-5.04771 60.76171,-0.60421 20.43125,6.70016 39.35999,23.31944 45.62179,40.0556 4.37057,11.68141 8.6681,38.52626 6.51265,40.68171 -2.90501,2.90504 -1.86238,10.56679 3.53031,25.94208 2.86769,8.17624 5.22864,16.30181 5.24653,18.05682 0.0329,3.22531 -3.4732,5.27447 -12.33434,7.20886 -3.61374,0.78892 -4.12226,1.60087 -4.12226,6.58201 0,3.12518 -1.2977,11.03834 -2.88372,17.58485 -1.58605,6.54651 -3.32206,14.53383 -3.85778,17.7496 -0.59361,3.56323 -2.71552,7.58832 -5.43283,10.30561 -4.43749,4.43749 -4.51749,4.45371 -16.75364,3.39636 -6.76221,-0.58435 -15.16175,-1.59336 -18.66571,-2.24228 l -6.3708,-1.17984 v 7.99326 7.99326 l 6.3708,1.63179 c 11.2627,2.88474 30.15649,8.62989 37.20973,11.31457 l 6.85471,2.60914 11.34411,-6.88634 c 16.91996,-10.27113 24.31624,-12.3051 44.65058,-12.27898 21.74376,0.028 36.33905,4.63786 54.84606,17.32323 l 6.12817,4.20043 13.359,-4.76015 c 24.74389,-8.81688 47.94541,-5.94512 70.23227,8.69292 9.98679,6.55938 10.11588,6.5969 8.87244,2.58092 -0.694,-2.24142 -1.26774,-24.64924 -1.27499,-49.79519 -0.0121,-43.50266 -0.1833,-46.30147 -3.52194,-57.71201 -1.92983,-6.59564 -4.51173,-13.56596 -5.73754,-15.48955 -2.04829,-3.21424 -2.85656,-3.40329 -9.98232,-2.33456 -10.98304,1.6472 -16.74058,1.03237 -23.73186,-2.5343 -4.85542,-2.47707 -7.58655,-2.90604 -13.40589,-2.10567 -6.54868,0.90069 -8.28761,0.4574 -16.73254,-4.26526 -14.04007,-7.85166 -14.35519,-8.40564 -13.9533,-24.52913 0.3765,-15.10297 0.46297,-15.29946 14.14348,-32.13459 11.97929,-14.74164 20.49776,-17.07489 34.96822,-9.57797 11.69578,6.0594 42.38998,25.50002 54.20312,34.33038 10.68853,7.98967 11.31777,8.9932 26.90044,42.90102 0.94722,2.06115 5.87263,11.16765 10.9454,20.23667 32.44668,58.00795 47.54585,100.41644 49.65777,139.47183 1.42491,26.35068 -0.22518,27.73665 -64.79183,54.42039 -18.13807,7.49602 -41.41023,16.42273 -51.71597,19.83716 -17.2559,5.71715 -20.34713,6.27006 -39.09079,6.99193 -22.14653,0.85295 -40.05192,-1.79632 -64.71949,-9.57579 l -11.62099,-3.66494 0.74723,-13.04998 c 0.73854,-12.89763 0.72296,-12.97125 -1.33452,-6.30446 -8.41832,27.27766 -21.23185,47.57035 -42.9214,67.97431 l -11.86188,11.1588 -1.57506,17.02119 c -2.38399,25.76282 -5.37853,39.19712 -12.24835,54.94921 -2.57971,5.91526 -3.28266,12.01023 -4.39194,38.08017 -1.15825,27.22102 -3.58015,55.17431 -6.74517,77.85155 l -0.9709,6.95631 17.79467,-4.92877 c 23.69438,-6.56296 31.5078,-9.44063 53.32416,-19.63961 49.42244,-23.10458 96.15954,-60.8178 127.97937,-103.26941 18.47478,-24.6475 29.20063,-42.37304 42.1787,-69.70407 6.0681,-12.7791 12.71451,-26.6075 14.76977,-30.72978 l 3.73689,-7.49506 -0.85028,8.99409 c -2.96036,31.31363 -19.81995,82.07619 -37.76115,113.69516 -28.19259,49.68554 -63.45083,89.95923 -108.30781,123.71445 -43.54146,32.76527 -87.52994,52.72313 -138.73449,62.9446 -32.65799,6.51922 -75.02092,9.14548 -107.17942,6.64452 z m -83.4258,-130.05796 c 6.46884,-1.42168 14.77337,-2.34521 18.45454,-2.05245 l 6.69298,0.5323 -0.97363,-7.51305 c -2.27894,-17.58613 -8.19298,-44.33752 -11.0322,-49.90275 -1.68666,-3.30621 -9.27633,-13.33402 -16.86592,-22.28416 -19.75846,-23.30038 -34.22353,-46.19465 -38.74878,-61.32867 -1.71519,-5.73621 -1.55434,-6.49775 2.83431,-13.41794 2.559,-4.0351 5.91812,-10.74228 7.46472,-14.90481 2.87839,-7.74703 6.98888,-28.98657 5.83336,-30.14209 -0.35328,-0.3533 -3.13539,6.08935 -6.18249,14.31701 -12.79441,34.54749 -30.78391,54.19595 -62.95595,68.76176 l -10.2659,4.64798 5.40812,7.36737 c 6.20744,8.45608 10.72804,18.23653 16.49955,35.69689 2.23259,6.75426 6.80176,16.5353 10.15374,21.73568 7.33403,11.37842 29.73834,34.71204 43.18437,44.9758 10.78404,8.23152 9.62552,8.09826 30.49918,3.51113 z M 493.14553,525.02777 c 18.89724,-5.19054 29.0445,-12.5152 35.49776,-25.6237 4.16515,-8.46063 4.7169,-11.05568 4.66677,-21.95008 -0.0427,-9.29182 -1.04664,-15.30377 -4.0491,-24.24794 -2.19576,-6.54105 -4.67946,-12.94491 -5.51931,-14.23081 -1.31034,-2.00621 -1.41103,-1.9651 -0.70969,0.28975 0.44955,1.44523 1.91565,8.86534 3.25806,16.48915 2.87577,16.33252 2.09,29.89199 -2.22206,38.34436 -13.77745,27.00603 -74.50558,36.25156 -121.30712,18.46839 -9.52585,-3.61955 -8.66454,-1.51009 1.48306,3.63206 8.81971,4.4693 22.87643,8.98261 34.33673,11.02484 11.53211,2.05499 43.81897,0.75557 54.5649,-2.19602 z m -357.52607,37.15184 c -17.38542,-38.50985 -24.81243,-78.67458 -23.49166,-127.04134 1.69976,-62.24536 17.72587,-112.2719 52.82328,-164.89143 14.96773,-22.44027 24.82782,-34.4707 44.62019,-54.44184 27.87699,-28.12872 54.5797,-47.19721 91.63593,-65.43748 45.43607,-22.3651 87.75447,-33.47511 132.04252,-34.6656 25.0262,-0.67273 26.22169,0.049 7.49507,4.52465 -48.74204,11.64943 -99.53705,35.41884 -134.91117,63.13137 -66.05193,51.74593 -106.74388,129.561 -111.09467,212.44586 -0.57629,10.97912 -0.25155,24.89053 0.80861,34.63765 l 1.77173,16.28936 -7.16741,10.68284 c -14.89126,22.19505 -28.71739,53.17404 -46.42323,104.01646 -1.50736,4.32838 -3.22531,7.86981 -3.81766,7.86981 -0.59238,0 -2.52354,-3.20415 -4.29153,-7.12031 z"
       id="path2"
       sodipodi:nodetypes="ssscsscsssssscsssssssssssssssssscccsscssscssscssssssssssssssssscssscsssscssssscssssssscssssssscccssscssssssssssssscsscsscssscsssc" />
  </g>
</svg>
