<?xml version="1.0" encoding="UTF-8" standalone="no"?>
<!-- Created with Inkscape (http://www.inkscape.org/) -->

<svg
   version="1.1"
   id="svg1"
   width="821.94196"
   height="700.72113"
   viewBox="0 0 821.94196 700.72113"
   sodipodi:docname="light.svg"
   inkscape:export-filename="light.svg"
   inkscape:export-xdpi="24"
   inkscape:export-ydpi="24"
   xmlns:inkscape="http://www.inkscape.org/namespaces/inkscape"
   xmlns:sodipodi="http://sodipodi.sourceforge.net/DTD/sodipodi-0.dtd"
   xmlns="http://www.w3.org/2000/svg"
   xmlns:svg="http://www.w3.org/2000/svg">
  <defs
     id="defs1" />
  <sodipodi:namedview
     id="namedview1"
     pagecolor="#ffffff"
     bordercolor="#000000"
     borderopacity="0.25"
     inkscape:showpageshadow="2"
     inkscape:pageopacity="0.0"
     inkscape:pagecheckerboard="0"
     inkscape:deskcolor="#d1d1d1">
    <inkscape:page
       x="0"
       y="0"
       width="821.94196"
       height="700.72113"
       id="page2"
       margin="0"
       bleed="0" />
  </sodipodi:namedview>
  <g
     inkscape:groupmode="layer"
     inkscape:label="Image"
     id="g1"
     transform="translate(-90.848816,-107.72794)">
    <path
       style="fill:#d4af37;fill-opacity:1"
       d="m 198.34882,807.04797 c -6.61469,-2.9648 -10.49018,-8.9188 -10.61714,-16.3116 -0.14484,-8.4331 4.0984,-14.9472 11.60362,-17.8135 8.39435,-3.2058 17.85199,0.5005 22.0646,8.6468 2.36828,4.5797 1.8667,13.5126 -1.03695,18.4673 -4.22221,7.2047 -14.37088,10.4368 -22.01413,7.011 z m 13.66417,-9.2518 c 1.84562,-1.9646 2.33583,-3.6069 2.33583,-7.8253 0,-7.0985 -2.91553,-10.5 -9,-10.5 -6.60943,0 -10.55978,5.7684 -9.07853,13.2566 0.90133,4.5565 2.93456,6.8603 6.77279,7.674 4.34423,0.9209 6.14984,0.3965 8.96991,-2.6053 z m 142.83634,9.6053 c -14.15113,-5.9487 -14.45841,-27.1737 -0.49128,-33.9351 12.42612,-6.0153 26.79671,4.3301 25.16401,18.1157 -1.20054,10.1367 -7.12361,16.0783 -16.52101,16.5727 -3.10873,0.1636 -6.777,-0.1754 -8.15172,-0.7533 z m 12.7483,-8.4672 c 4.80849,-3.368 4.80214,-14.5632 -0.0102,-17.9339 -3.43979,-2.4093 -9.39842,-1.9606 -12.28408,0.9251 -3.52798,3.5279 -3.52921,12.0938 -0.002,15.8994 2.86171,3.0878 8.71766,3.6162 12.29656,1.1094 z m 139.25119,8.8148 c -3.08892,-0.3403 -4.11785,-1.2896 -8.76054,-8.0819 -2.8933,-4.233 -6.29245,-8.989 -7.55368,-10.569 l -2.29313,-2.8726 0.27311,10.6226 0.27311,10.6227 h -3.96943 -3.96944 v -17.5 -17.5 l 3.75,0.034 c 3.60932,0.032 4.0126,0.4107 10.75,10.084 l 7,10.0504 0.28498,-10.084 0.28499,-10.0841 h 3.96501 3.96502 v 18 c 0,9.9 -0.1125,17.9244 -0.25,17.8319 -0.1375,-0.092 -1.825,-0.3416 -3.75,-0.5537 z m 79.5,-0.056 -12,-0.2783 0.17501,-17.2217 0.17501,-17.2217 12.07499,-0.2808 12.07499,-0.2807 v 3.5307 3.5308 h -7.88337 c -6.8884,0 -7.94572,0.2385 -8.37743,1.8893 -0.83063,3.1763 0.548,3.9912 7.28673,4.3072 l 6.47407,0.3035 v 3.5 3.5 l -7.24787,0.2938 -7.24787,0.2937 0.24787,3.2063 0.24787,3.2062 8.5,0.5 c 8.48205,0.499 8.50069,0.5061 8.82818,3.3718 0.1805,1.5795 -0.0445,3.1545 -0.5,3.5 -0.4555,0.3455 -6.22818,0.503 -12.82818,0.3499 z m 62.90107,-1.1271 c -13.14443,-5.9695 -13.17825,-25.9872 -0.0554,-32.7734 4.63415,-2.3964 12.54785,-2.071 17.51396,0.7201 4.66801,2.6236 5.04843,3.8269 2.06373,6.528 -1.98319,1.7948 -2.21175,1.8018 -5.08104,0.155 -7.44262,-4.2715 -15.84232,0.051 -15.84232,8.1517 0,8.3205 4.46642,12.7103 11.35197,11.1574 2.0376,-0.4596 4.38231,-1.3979 5.21047,-2.0852 1.20721,-1.0019 1.99463,-0.988 3.97165,0.07 3.05632,1.6357 3.10879,3.0309 0.21591,5.7408 -4.86053,4.5532 -12.44896,5.4691 -19.34893,2.3355 z m 205.59889,0.7847 c -3.1944,-1.2701 -7.7753,-5.6075 -9.5892,-9.0796 -2.1903,-4.1924 -1.7655,-12.6153 0.8709,-17.2701 5.5371,-9.7763 18.8346,-12.1643 26.9317,-4.8365 2.3658,2.141 2.2632,2.7647 -0.7835,4.7609 -2.3477,1.5383 -2.7775,1.5483 -4.9648,0.115 -2.74,-1.7952 -7.6988,-2.0495 -10.5204,-0.5393 -2.4575,1.3151 -4.9447,6.1036 -4.9447,9.5195 0,8.5486 7.0116,13.1384 14.4493,9.4585 3.5908,-1.7766 4.1872,-1.8207 6.2599,-0.4626 2.8545,1.8704 2.86,2.5731 0.041,5.214 -4.3077,4.0352 -12.033,5.3932 -17.75,3.1202 z M 92.848819,789.97137 v -17.5 h 4 4.000001 v 17.5 17.5 h -4.000001 -4 z m 18.000001,-0.06 v -17.5603 l 3.74238,0.3103 c 3.47815,0.2885 4.23717,0.9999 10.75,10.0758 l 7.00762,9.7655 0.28498,-10.0155 0.28499,-10.0154 h 3.96501 3.96502 v 17.5 17.5 l -3.75,-0.049 c -3.62399,-0.048 -4.00203,-0.4125 -11.25,-10.8599 l -7.5,-10.8107 0.33848,10.86 0.33847,10.8599 h -4.08847 -4.08848 z m 39,0.06 v -17.5 h 3.79815 c 3.66061,0 4.06092,0.3621 11.05394,10 3.99068,5.5 7.34402,10.0006 7.45185,10.0013 0.10783,7e-4 0.19606,-4.3868 0.19606,-9.75 v -9.7513 l 3.75,-0.3104 3.75,-0.3103 v 17.5603 17.5604 h -3.47986 c -3.29494,0 -3.86622,-0.5615 -10.75,-10.567 l -7.27014,-10.5669 -0.28383,10.5669 -0.28383,10.567 h -3.96617 -3.96617 z m 82.7289,1.2354 c -3.1741,-8.9295 -5.7616,-16.7979 -5.75,-17.4854 0.0131,-0.7774 1.46058,-1.25 3.82893,-1.25 h 3.80782 l 3.94218,11.498 c 2.16819,6.3239 4.19083,11.4989 4.49474,11.5 0.30392,10e-4 2.05548,-4.3855 3.89237,-9.748 4.61545,-13.474 4.46174,-13.25 9.09024,-13.25 2.18065,0 3.96482,0.1799 3.96482,0.3997 0,0.2198 -1.53206,4.3823 -3.40458,9.25 -1.87251,4.8677 -4.83022,12.5628 -6.57268,17.1003 l -3.16811,8.25 -4.17732,-0.015 -4.17731,-0.015 z m 26.34771,15.0146 c 0.0421,-0.6875 3.08708,-8.45 6.76655,-17.25 l 6.68995,-16 4.23345,-0.3075 c 2.53211,-0.1839 4.23344,0.1226 4.23344,0.7626 0,1.0783 9.8911,25.0517 12.56264,30.4486 0.79055,1.597 1.43736,3.0595 1.43736,3.25 0,0.1905 -1.94165,0.3463 -4.31479,0.3463 -3.94661,0 -4.4572,-0.2986 -5.98382,-3.5 -1.65724,-3.4753 -1.71544,-3.5 -8.23624,-3.5 -6.56016,0 -6.56877,0 -8.0296,3.5 -1.32457,3.1702 -1.8381,3.5 -5.44897,3.5 -2.56345,0 -3.95923,-0.4462 -3.90997,-1.25 z m 19.58159,-18.2782 -2.1582,-5.5282 -1.19592,2.8887 c -0.65775,1.5887 -1.49404,4.0764 -1.85841,5.5281 -0.63363,2.5247 -0.48755,2.6396 3.35412,2.6396 h 4.0166 z m 25.3418,5.5282 v -14 h -5 -5 v -3.5 -3.5 h 14.5 14.5 v 3.5 3.5 h -5.5 -5.5 v 14 14 h -4 -4 z m 24,-3.5575 v -17.5575 l 4.14312,0.3075 4.14313,0.3075 0.10687,17.2501 0.10688,17.2501 -4.25,-1e-4 -4.25,-10e-5 z m 59,0.058 v -17.5 h 3.84455 c 3.7388,0 4.05514,0.2927 11.5,10.6392 l 7.65545,10.6392 v -10.6995 -10.6996 l 3.75,0.3103 3.75,0.3104 0.18577,17.25 0.18578,17.25 h -3.89851 c -3.66596,0 -4.14993,-0.3728 -8.11308,-6.25 -2.318,-3.4375 -5.70977,-8.2272 -7.53726,-10.6438 l -3.3227,-4.3938 v 10.6438 10.6438 h -4 -4 z m 52,17.2101 c 0,-0.1594 3.06262,-7.9219 6.80581,-17.25 l 6.80582,-16.9601 4.09919,-0.3028 c 3.92644,-0.2901 4.1502,-0.1483 5.30975,3.3651 0.66581,2.0175 3.81259,9.9162 6.99285,17.5529 l 5.78229,13.8848 h -4.38444 c -4.06556,0 -4.49079,-0.2545 -5.84682,-3.5 -1.45987,-3.4939 -1.47367,-3.5 -8,-3.5 -6.52634,0 -6.54013,0.01 -8,3.5 -1.33009,3.1834 -1.8289,3.5 -5.51342,3.5 -2.22807,0 -4.05103,-0.1304 -4.05103,-0.2899 z m 19.67095,-19.1609 -2.14545,-5.4509 -1.70688,4.2009 c -2.50626,6.1682 -2.34018,6.7008 2.08958,6.7008 h 3.90819 z m 61.32905,1.9508 v -17.5 h 9.18428 c 11.42946,0 16.32622,2.0051 19.74278,8.084 2.94607,5.2418 2.65525,15.309 -0.56778,19.6552 -3.99002,5.3805 -8.8584,7.2261 -19.10928,7.2444 l -9.25,0.016 z m 17.96637,9.0174 c 3.46457,-1.7916 5.5042,-7.1955 4.57843,-12.1303 -0.80104,-4.2699 -5.34511,-7.3779 -10.7948,-7.3833 h -3.75 v 10.5 10.5 h 3.54966 c 1.95231,0 4.83983,-0.6672 6.41671,-1.4826 z m 66.03363,8.0623 c 0,-0.2311 2.475,-4.0132 5.5,-8.4046 3.025,-4.3914 5.5,-8.4395 5.5,-8.9959 0,-0.5564 -2.25,-4.3757 -5,-8.4873 -2.75,-4.1115 -5,-7.7492 -5,-8.0837 0,-0.3345 1.98882,-0.6082 4.41959,-0.6082 4.28833,0 4.52058,0.1651 7.81944,5.5587 l 3.39984,5.5587 3.69078,-5.5587 c 3.57116,-5.3785 3.83704,-5.5587 8.20362,-5.5587 h 4.51284 l -1.76634,2.75 c -0.97149,1.5125 -3.45686,5.1871 -5.52306,8.1658 -2.06619,2.9787 -3.75671,5.8446 -3.75671,6.3688 0,0.5242 2.475,4.4851 5.5,8.8021 3.025,4.317 5.5,8.0885 5.5,8.3812 0,0.2927 -2.01117,0.5321 -4.46927,0.5321 -4.32417,0 -4.5835,-0.1785 -7.98758,-5.5 -1.93507,-3.025 -3.75449,-5.5 -4.04315,-5.5 -0.28866,0 -2.10808,2.475 -4.04315,5.5 -3.40408,5.3215 -3.66341,5.5 -7.98758,5.5 -2.4581,0 -4.46927,-0.1891 -4.46927,-0.4203 z m 74,-17.0797 v -17.5 h 12.5 12.5 v 3.5 3.5 h -8.32681 -8.3268 l 0.4403,3 c 0.43678,2.976 0.49172,3 6.85819,3 6.98061,0 8.10189,0.8885 6.94391,5.5023 -0.58787,2.3422 -1.03037,2.4977 -7.10784,2.4977 h -6.48095 v 3.5 3.5 h 8.5 8.5 v 3.5 3.5 h -13 -13 z m 33,0 v -17.5 h 4 4 v 14 14 h 8.5 8.5 v 3.5 3.5 h -12.5 -12.5 z m 31,0 v -17.5 h 4.5 4.5 v 14 14 h 7.39059 7.3906 l 0.4086,3.5 0.40861,3.5 h -12.2992 -12.2992 z m 31,0 v -17.5 h 12.5 12.5 v 3.5 3.5 h -8.5 -8.5 v 3 3 h 7 7 v 4 4 h -7 -7 v 3.5 3.5 h 8.5 8.5 v 3.5 3.5 h -12.5 -12.5 z m 33,0.057 v -17.5575 h 3.82645 c 3.69838,0 4.07491,0.3407 11.25,10.178 l 7.42355,10.178 0.28498,-10.178 0.28499,-10.178 3.71499,10e-4 3.715,0.001 0.1991,17.4986 0.199,17.4994 h -3.814 c -3.71197,0 -4.00985,-0.281 -11.1312,-10.5 -4.02443,-5.775 -7.48587,-10.5 -7.69209,-10.5 -0.20622,0 -0.28694,4.6125 -0.17938,10.25 l 0.19555,10.25 -4.13847,0.3075 -4.13847,0.3075 z m 75.99996,-0.057 v -17.5 h 12.5 12.5 v 3.5 3.5 h -8.5 -8.5 v 3 3 h 7 7 v 4 4 h -7 -7 v 3.4611 3.461 l 8.7246,0.289 c 9.357,0.3099 9.0211,0.078 8.3866,5.7889 -0.068,0.6074 -5.0186,1 -12.6112,1 h -12.5 z m -616.51699,-57.9573 c -11.10526,-2.5622 -18.48866,-6.0999 -29.66439,-14.2136 l -4.68142,-3.3987 5.4628,-7.614 c 3.00454,-4.1877 6.2207,-8.8971 7.14703,-10.4652 0.92632,-1.5682 2.03616,-2.8512 2.4663,-2.8512 0.43015,0 2.92062,1.5212 5.5344,3.3803 10.43759,7.4243 20.83392,10.9012 32.80747,10.972 6.59857,0.039 8.94931,-0.3953 13,-2.4023 4.07898,-2.021 5.1964,-3.1776 6.38144,-6.6055 1.17805,-3.4075 1.21559,-4.8931 0.20863,-8.2541 -1.63924,-5.4713 -5.91679,-7.5731 -27.34299,-13.4353 -19.30143,-5.2808 -25.24139,-7.999 -31.78966,-14.5473 -7.01055,-7.0105 -9.26918,-13.8055 -8.84439,-26.6078 0.2625,-7.9111 0.8017,-10.94 2.58127,-14.5 5.53147,-11.0656 16.29587,-18.2882 31.3153,-21.0117 8.77795,-1.5918 25.18852,-1.3748 34.06501,0.4503 7.4169,1.5251 25.87023,9.8012 25.87023,11.6026 0,1.0125 -9.54125,18.6052 -11.22051,20.6889 -0.76349,0.9474 -1.96808,0.6577 -5.24126,-1.2605 -12.33516,-7.2289 -31.82074,-10.5429 -41.1164,-6.9929 -2.9638,1.1319 -5.26872,2.8646 -6.50275,4.8884 -2.3162,3.7984 -2.39355,5.8328 -0.38286,10.07 2.36615,4.9863 5.70182,6.5055 30.96378,14.1018 19.1814,5.768 28.87491,12.38 34.21272,23.3367 2.42452,4.9768 2.74307,6.7811 2.75879,15.6264 0.0158,8.8721 -0.29751,10.6767 -2.77762,16 -4.71709,10.1247 -13.12801,17.2735 -25.49227,21.667 -7.47838,2.6574 -30.68057,3.461 -39.71865,1.3757 z m 364.20603,-0.5427 -16.81099,-0.5 -12.82956,-20.5 -12.82957,-20.5 -11.85944,-0.2797 -11.85944,-0.2798 0.28861,21.0298 0.28861,21.0297 h -15.03861 -15.03861 v -65.5774 -65.5775 l 35.75,0.3945 c 38.07038,0.42 40.26676,0.6787 50.64204,5.9635 5.69598,2.9014 13.45479,10.5611 16.2149,16.008 3.00151,5.9231 5.35887,15.7101 5.37828,22.3288 0.0175,5.9662 -2.17514,14.9519 -4.99931,20.4877 -2.83563,5.5583 -11.69033,14.1052 -17.01034,16.4189 -2.46156,1.0706 -4.60648,2.0265 -4.76649,2.1243 -0.43378,0.265 27.66051,41.5777 29.99506,44.1077 1.1056,1.1982 1.84946,2.5482 1.65302,3 -0.19644,0.4518 -7.92211,0.5965 -17.16816,0.3215 z m -29.38087,-69.5893 c 8.14969,-2.7769 12.51444,-10.7696 11.33538,-20.7572 -0.79979,-6.7749 -3.38943,-10.7673 -8.66028,-13.3515 -4.49174,-2.2022 -11.79355,-2.7236 -33.48323,-2.3911 l -6,0.092 v 18.9993 18.9993 l 16.07186,-7e-4 c 12.06279,-6e-4 17.23538,-0.3972 20.73627,-1.5901 z m 62.69037,69.0508 c 8.3e-4,-0.5711 2.29244,-6.4211 5.09248,-13 2.80004,-6.5788 6.58575,-15.5615 8.41269,-19.9615 1.82695,-4.4 5.78558,-13.85 8.79697,-21 3.01139,-7.15 11.19123,-26.725 18.17742,-43.5 6.98619,-16.775 13.17664,-31.0744 13.75656,-31.7766 0.78467,-0.95 4.64209,-1.2058 15.08013,-1 l 14.02575,0.2766 20.81163,50 c 11.4464,27.5 23.52475,56.525 26.84079,64.5 3.31603,7.975 6.02418,14.8492 6.01811,15.2761 -0.006,0.4268 -6.82457,0.6518 -15.15223,0.5 l -15.14121,-0.2761 -5.25493,-13.5 -5.25494,-13.5 -27.98858,-0.2654 -27.98858,-0.2653 -5.27712,13.9669 -5.27712,13.967 -14.83966,0.2984 c -9.78512,0.1968 -14.83914,-0.055 -14.83816,-0.7401 z m 85.68821,-53.812 c -0.24759,-0.6322 -4.2017,-10.5596 -8.78691,-22.0608 l -8.33674,-20.9113 -2.37616,5.4113 c -1.30688,2.9762 -4.08989,9.9113 -6.18445,15.4113 -2.09456,5.5 -4.92987,12.925 -6.30069,16.5 l -2.49239,6.5 17.46375,0.1495 c 12.80283,0.1097 17.3436,-0.1572 17.01359,-1 z m -657.686711,53.4437 c 0,-0.4987 1.38088,-3.9845 3.06863,-7.7461 3.21482,-7.1653 9.193611,-21.4448 22.964311,-54.8471 10.30718,-25.0011 25.49983,-61.3804 27.10322,-64.8995 l 1.20833,-2.652 14.57776,0.2758 14.57775,0.2757 21.27087,51 c 11.69898,28.05 23.09184,55.4721 25.31748,60.938 2.22564,5.4659 4.91624,11.7379 5.97913,13.9378 1.06289,2.1999 1.93252,4.1404 1.93252,4.312 0,0.1717 -6.91261,0.3122 -15.36135,0.3122 h -15.36136 l -3.18924,-7.5977 c -1.75408,-4.1787 -4.12204,-10.1412 -5.26214,-13.25 -1.14009,-3.1088 -2.35483,-5.9611 -2.6994,-6.3385 -0.34458,-0.3774 -12.7733,-0.7836 -27.61938,-0.9027 l -26.99287,-0.2164 -5.40509,14.1527 -5.40508,14.1526 h -15.35205 c -8.515901,0 -15.352041,-0.4038 -15.352041,-0.9068 z m 85.002011,-53.5932 c 0.007,-2.4095 -16.29959,-41.4341 -17.1056,-40.936 -0.49302,0.3047 -0.89641,1.0162 -0.89641,1.5811 0,0.5649 -3.375,9.4414 -7.5,19.7255 -4.125,10.2842 -7.5,19.1705 -7.5,19.7474 0,0.693 5.60001,1.0207 16.49949,0.9655 10.27512,-0.052 16.50063,-0.4607 16.50252,-1.0835 z m 177.99799,-11.0894 v -65.5893 l 34.25,0.4095 c 31.69511,0.3789 34.73487,0.5694 40.75,2.5535 15.74099,5.1921 25.69753,15.8831 28.88406,31.0149 3.56118,16.9109 -2.56395,36.1378 -14.38406,45.152 -11.48508,8.7586 -20.51653,10.9062 -46.25,10.998 l -14.25,0.051 v 20.5 20.5 h -14.5 -14.5 z m 63.4634,-2.8237 c 2.17987,-0.9148 4.83093,-2.4335 5.89123,-3.375 5.9971,-5.3253 7.60164,-19.0501 3.01693,-25.806 -5.08469,-7.4927 -8.51731,-8.5504 -28.62156,-8.8189 l -14.75,-0.1969 v 20.4485 20.4486 l 15.25,-0.5186 c 11.00079,-0.3741 16.35435,-0.982 19.2134,-2.1817 z m 61.5366,2.9131 v -65.5 h 14 14 v 65.5 65.5 h -14 -14 z m 338.24276,0.25 0.25724,-65.25 h 47.49996 47.5 v 12 12 l -33.75,0.2633 -33.75,0.2633 v 13.4867 13.4867 h 29.5 29.5 v 12.393 c 0,10.3783 -0.2571,12.4917 -1.5817,13 -0.87,0.3339 -14.145,0.607 -29.5,0.607 h -27.9183 v 13.4867 13.4867 l 33.75,0.2633 33.75,0.2633 0.221,12.75 0.221,12.75 h -47.9782 -47.97824 z M 475.84882,563.77147 c -37.92953,-2.9497 -74.16896,-14.8014 -102.92763,-33.6615 -16.53857,-10.8461 -40.5722,-31.4726 -38.77053,-33.2743 0.27739,-0.2773 2.44485,0.4857 4.81657,1.6956 14.71449,7.5068 37.08271,15.7971 49.69697,18.419 9.73966,2.0245 9.75327,2.02 5.4375,-1.8089 -5.33615,-4.7341 -11.29138,-8.5766 -22.75288,-14.6811 -28.60492,-15.2351 -51.32611,-32.2107 -67.34693,-50.3165 -7.27144,-8.2177 -20.27935,-26.0399 -23.2365,-31.8364 -2.57141,-5.0404 -1.79189,-9.6733 4.61505,-27.42806 9.72469,-26.94887 19.68308,-43.38248 37.4681,-61.83097 11.40809,-11.83366 11.69836,-12.24904 14.37923,-20.57746 5.76917,-17.92247 15.78335,-30.54718 29.62105,-37.34275 9.49451,-4.66267 18.79537,-6.61787 31.58589,-6.63989 9.95908,-0.0171 10.14139,-0.0606 14.5,-3.4562 5.87756,-4.57894 16.52041,-10.35955 28.56188,-15.51321 11.8801,-5.08461 15.3875,-7.6237 19.87123,-14.38527 8.34123,-12.5788 10.22099,-28.01953 5.31552,-43.66268 -3.60405,-11.49302 -4.18015,-17.88754 -2.48191,-27.54813 3.2998,-18.77113 14.99428,-32.27461 33.45695,-38.63234 9.13294,-3.14498 31.49525,-3.36735 40.53448,-0.40306 13.62981,4.4697 26.25727,15.55652 30.43455,26.72131 2.91564,7.79273 5.78255,25.70108 4.34463,27.139 -1.93796,1.93796 -1.24241,7.04916 2.35508,17.3061 1.91306,5.45442 3.48806,10.87503 3.5,12.0458 0.0219,2.15163 -2.31699,3.51863 -8.2283,4.80909 -2.41076,0.52628 -2.75,1.06794 -2.75,4.39089 0,2.08481 -0.86569,7.36373 -1.92374,11.73095 -1.05806,4.36721 -2.21616,9.6956 -2.57354,11.84085 -0.39601,2.37705 -1.81155,5.06222 -3.62427,6.87494 -2.96028,2.96027 -3.01364,2.97109 -11.17646,2.26573 -4.5111,-0.38982 -10.11449,-1.06294 -12.45199,-1.49584 l -4.25,-0.78708 v 5.33235 5.33235 l 4.25,1.08857 c 7.51341,1.92443 20.11756,5.75705 24.82282,7.54802 l 4.57281,1.74056 7.56772,-4.59391 c 11.2874,-6.85192 16.2215,-8.2088 29.78665,-8.19138 14.50539,0.0186 24.24199,3.09395 36.58812,11.55642 l 4.08813,2.80214 8.91187,-3.17553 c 16.50678,-5.88178 31.98465,-3.96602 46.85234,5.79911 6.66224,4.37578 6.74837,4.40083 5.91885,1.72174 -0.46297,-1.49526 -0.84571,-16.44365 -0.85054,-33.21865 -0.008,-29.02087 -0.12229,-30.88797 -2.34951,-38.5 -1.28741,-4.4 -3.00981,-9.04993 -3.82755,-10.33317 -1.36642,-2.14425 -1.90563,-2.27036 -6.65926,-1.55741 -7.32685,1.09887 -11.16774,0.68871 -15.83166,-1.69064 -3.23908,-1.65246 -5.06103,-1.93863 -8.94314,-1.4047 -4.36867,0.60084 -5.52872,0.30513 -11.16237,-2.84538 -9.36622,-5.23789 -9.57644,-5.60745 -9.30832,-16.36352 0.25115,-10.07528 0.30884,-10.20635 9.43518,-21.43716 7.99146,-9.83424 13.67418,-11.39077 23.3275,-6.38953 7.80232,4.04226 28.27859,17.01121 36.15921,22.90199 7.13037,5.32995 7.55015,5.99942 17.94543,28.61952 0.63189,1.375 3.91767,7.45 7.30174,13.5 21.64536,38.69742 31.71811,66.98836 33.12698,93.04243 0.95056,17.57869 -0.15022,18.50327 -43.223,36.30415 -12.1,5.00063 -27.625,10.9557 -34.5,13.23349 -11.51152,3.81394 -13.5737,4.18279 -26.07769,4.66435 -14.77408,0.569 -26.71887,-1.19834 -43.17474,-6.38806 l -7.75243,-2.44491 0.49849,-8.70572 c 0.49268,-8.60407 0.48228,-8.65318 -0.89027,-4.20573 -5.61591,18.19707 -14.16389,31.73444 -28.63311,45.34604 l -7.91313,7.4441 -1.05073,11.35493 c -1.59037,17.18652 -3.58805,26.14862 -8.17094,36.65692 -1.72094,3.9461 -2.18989,8.0121 -2.92989,25.4035 -0.77267,18.1593 -2.38834,36.8071 -4.49974,51.9352 l -0.64769,4.6406 11.87093,-3.288 c 15.80664,-4.3782 21.01902,-6.2979 35.57283,-13.1017 32.96999,-15.4132 64.14858,-40.5719 85.37576,-68.8916 12.32463,-16.4425 19.47991,-28.2673 28.13764,-46.49999 4.04807,-8.525 8.48193,-17.75 9.85301,-20.5 l 2.4929,-5 -0.56723,6 c -1.97487,20.88951 -13.222,54.75349 -25.19068,75.84669 -18.80743,33.1455 -42.3284,60.0123 -72.25274,82.5306 -29.04675,21.8579 -58.39172,35.1719 -92.55055,41.9907 -21.78634,4.349 -50.04689,6.101 -71.5,4.4326 z M 420.195,477.00907 c 4.3154,-0.9484 9.8554,-1.5645 12.31112,-1.3692 l 4.46493,0.3551 -0.64951,-5.012 c -1.5203,-11.7318 -5.46559,-29.5778 -7.35965,-33.2904 -1.12518,-2.2056 -6.18829,-8.8952 -11.25135,-14.8659 -13.18098,-15.5438 -22.83071,-30.8167 -25.84953,-40.91269 -1.14421,-3.82666 -1.0369,-4.33468 1.89079,-8.95118 1.70712,-2.69184 3.94801,-7.16624 4.97975,-9.94309 1.9202,-5.16808 4.66232,-19.33711 3.89148,-20.10795 -0.23569,-0.23569 -2.09165,4.06224 -4.12437,9.55096 -8.53524,23.04681 -20.53613,36.15442 -41.99828,45.87135 l -6.84844,3.1007 3.60779,4.9148 c 4.14101,5.6411 7.15674,12.1657 11.00694,23.8136 1.48937,4.5058 4.5375,11.0308 6.77362,14.5 4.89257,7.5906 19.83861,23.1566 28.80853,30.0036 7.19409,5.4913 6.42124,5.4024 20.34618,2.3423 z m 81.11065,-96.0724 c 12.60645,-3.46264 19.37574,-8.34897 23.68076,-17.09371 2.7786,-5.64414 3.14666,-7.3753 3.11323,-14.64303 -0.0285,-6.19862 -0.69823,-10.20923 -2.70119,-16.17593 -1.4648,-4.36358 -3.12169,-8.63563 -3.68196,-9.49345 -0.87413,-1.33836 -0.94131,-1.31093 -0.47343,0.19329 0.2999,0.96412 1.27795,5.91412 2.17346,11 1.91845,10.89551 1.39426,19.94112 -1.48235,25.57974 -9.19101,18.01587 -49.70308,24.18362 -80.92465,12.32036 -6.35476,-2.41462 -5.78016,-1.00739 0.98936,2.42298 5.88368,2.98149 15.26098,5.99234 22.90622,7.35472 7.69313,1.3709 29.23188,0.50405 36.40055,-1.46497 z M 262.798,405.72087 c -11.59791,-25.69013 -16.55251,-52.48425 -15.67142,-84.74999 1.13392,-41.52423 11.82502,-74.89722 35.2387,-110 9.98507,-14.97004 16.56278,-22.9956 29.76639,-36.31845 18.59689,-18.76483 36.41042,-31.48553 61.13084,-43.65372 30.31066,-14.91988 58.54151,-22.33143 88.08631,-23.12561 16.69512,-0.44878 17.49263,0.0327 5,3.01842 -32.51609,7.7714 -66.40172,23.6281 -90,42.11529 -44.06361,34.52 -71.20944,86.43087 -74.11187,141.72382 -0.38446,7.32424 -0.16782,16.60461 0.53942,23.10698 l 1.18193,10.86672 -4.78142,7.12659 c -9.93404,14.80644 -19.15753,35.4727 -30.96919,69.38995 -1.00557,2.8875 -2.15163,5.25 -2.54679,5.25 -0.39517,0 -1.68347,-2.1375 -2.8629,-4.75 z"
       id="path2" />
  </g>
</svg>
